<svg width="248" height="31" viewBox="0 0 248 31" fill="none" xmlns="http://www.w3.org/2000/svg">
<g clip-path="url(#clip0_623_5089)">
<path d="M25.464 0.876247V6.03064H24.609V0.876247H22.4717V0H27.5792V0.876247H25.464Z" fill="#FDFEFE"/>
<path d="M33.6376 6.00119V3.31354H30.1072V6.00119H29.2375V0H30.1072V2.42993H33.6376V0H34.5146V6.00119H33.6376Z" fill="#FDFEFE"/>
<path d="M36.8511 6.00119V0H41.7965V0.883611H37.7281V2.45202H39.7992V3.3209H37.7281V5.15439H41.9513V6.00119H36.8511Z" fill="#FDFEFE"/>
<path d="M10.0161 22.3922C4.48108 22.3922 0 18.335 0 12.7093C0 6.93638 4.45897 2.99695 10.1193 2.99695C11.7753 2.92573 13.427 3.21329 14.9613 3.8399C16.4955 4.4665 17.8759 5.41733 19.0078 6.62712L17.8654 7.84945C16.8982 6.81106 15.7196 5.99181 14.4088 5.4469C13.0981 4.902 11.6856 4.64408 10.2667 4.69054C5.50554 4.69054 1.69515 7.77581 1.69515 12.7093C1.69515 17.4145 5.53502 20.6765 10.1193 20.6765C13.054 20.6209 15.8513 19.4243 17.917 17.3409L19.0888 18.5853C16.4724 21.0226 13.6275 22.3922 10.0161 22.3922Z" fill="#FDFEFE"/>
<path d="M30.3431 22.443C26.2084 22.443 22.4717 19.8805 22.4717 15.4625C22.4717 11.2285 26.3337 8.66602 30.2694 8.66602C34.3303 8.66602 38.266 11.28 38.266 15.6613C38.266 20.0425 34.3819 22.443 30.3431 22.443ZM30.2694 10.3891C27.2771 10.3891 24.1373 12.1857 24.1373 15.4919C24.1373 18.9527 27.2255 20.7494 30.3947 20.7494C33.4533 20.7494 36.5709 19.0779 36.5709 15.6686C36.5709 12.2594 33.4091 10.3891 30.2694 10.3891Z" fill="#FDFEFE"/>
<path d="M49.889 22.443C45.7543 22.443 42.0103 19.8805 42.0103 15.4625C42.0103 11.2285 45.8722 8.66602 49.8079 8.66602C53.8763 8.66602 57.812 11.28 57.812 15.6613C57.812 20.0425 53.9205 22.443 49.889 22.443ZM49.8079 10.3891C46.8598 10.3891 43.6833 12.1857 43.6833 15.4919C43.6833 18.9527 46.7714 20.7494 49.9332 20.7494C53.095 20.7494 56.1168 19.0779 56.1168 15.6686C56.1168 12.2594 52.955 10.3891 49.8079 10.3891Z" fill="#FDFEFE"/>
<path d="M72.5891 21.9649L67.5552 15.0506L64.1207 18.2095V21.9649H62.4182V9.12305H64.1207V15.8974L71.4909 9.12305H73.9599L68.8008 13.8798L74.7338 21.9796L72.5891 21.9649Z" fill="#FDFEFE"/>
<path d="M118.535 21.3536C117.238 22.3772 116.014 22.4729 114.422 22.4729H103.485V3.89497H114.422C115.098 3.86098 115.774 3.96482 116.408 4.20016C117.042 4.43551 117.622 4.79744 118.111 5.26388C118.601 5.73031 118.99 6.29149 119.256 6.91319C119.521 7.5349 119.657 8.2041 119.655 8.88001C119.645 9.6272 119.472 10.3632 119.149 11.0371C118.826 11.711 118.36 12.3066 117.783 12.7826C118.607 13.2116 119.297 13.8591 119.777 14.6541C120.257 15.4491 120.508 16.3607 120.503 17.289C120.505 18.0713 120.329 18.8438 119.988 19.5481C119.647 20.2523 119.15 20.8697 118.535 21.3536ZM114.422 5.61801H105.18V12.0905H114.422C116.39 12.0905 117.96 10.9197 117.96 8.85056C117.96 6.78143 116.449 5.61801 114.422 5.61801ZM114.422 13.8061H105.18V20.7278H114.422C115.639 20.7278 116.737 20.7278 117.658 19.8589C118.019 19.5364 118.306 19.1399 118.499 18.6963C118.693 18.2528 118.788 17.7727 118.778 17.289C118.778 14.7266 116.685 13.8061 114.422 13.8061Z" fill="#FDFEFE"/>
<path d="M132.45 22.9146C128.308 22.9146 124.571 20.3521 124.571 15.9488C124.571 11.7148 128.433 9.15234 132.369 9.15234C136.437 9.15234 140.373 11.7664 140.373 16.1476C140.373 20.5288 136.482 22.9146 132.45 22.9146ZM132.369 10.868C129.421 10.868 126.244 12.6647 126.244 15.9709C126.244 19.4317 129.332 21.221 132.494 21.221C135.656 21.221 138.678 19.5569 138.678 16.1476C138.678 12.7383 135.516 10.868 132.369 10.868Z" fill="#FDFEFE"/>
<path d="M156.477 22.4435L154.678 19.2331H145.783L143.962 22.4435H142.193L149.519 9.57227H151.045L158.238 22.4141L156.477 22.4435ZM150.271 11.3984L146.756 17.5689H153.735L150.271 11.3984Z" fill="#FDFEFE"/>
<path d="M172.898 22.4435L169.212 17.245H163.486V22.4435H161.813V9.57227H169.809C172.278 9.57227 174.718 10.5442 174.718 13.3792C174.718 15.4704 173.178 16.7369 171.232 17.0609L174.998 22.3846L172.898 22.4435ZM169.832 11.2953H163.508V15.5735H169.832C171.306 15.5735 173.045 15.2274 173.045 13.4086C173.045 11.5898 171.306 11.2953 169.832 11.2953Z" fill="#FDFEFE"/>
<path d="M186.717 22.4432H179.494V9.57195H186.717C187.442 9.5048 188.173 9.58429 188.867 9.80568C189.561 10.0271 190.203 10.3858 190.756 10.8605C191.481 11.5229 192.058 12.3313 192.448 13.2324C192.837 14.1335 193.032 15.1069 193.018 16.0886C193.018 19.9323 190.557 22.4432 186.717 22.4432ZM189.879 12.3848C189.476 11.9803 188.987 11.6722 188.449 11.4835C187.91 11.2947 187.335 11.2303 186.768 11.295H181.16V20.7496H186.717C189.606 20.7496 191.353 18.9603 191.353 16.0959C191.365 14.7141 190.836 13.3822 189.879 12.3848Z" fill="#FDFEFE"/>
<path d="M209.881 22.4435V12.6134L204.449 20.7499L199.04 12.6502V22.4435H197.374V9.57227H199.091L204.449 17.7088L209.881 9.60908H211.525V22.4435H209.881Z" fill="#FDFEFE"/>
<path d="M230.017 22.4435L228.218 19.2331H219.323L217.51 22.4435H215.741L223.059 9.57227H224.585L231.786 22.4141L230.017 22.4435ZM223.811 11.3984L220.296 17.5689H227.275L223.811 11.3984Z" fill="#FDFEFE"/>
<path d="M246.327 22.4435L237.32 12.1347V22.4435H235.647V9.57227H237.32L246.364 19.8811V9.57227H248.037V22.4435H246.327Z" fill="#FDFEFE"/>
<path d="M210.124 30.867C209.773 30.959 209.411 31.0036 209.048 30.9995C208.623 31.0201 208.197 30.9542 207.798 30.8056C207.399 30.6571 207.034 30.4291 206.725 30.1354C206.417 29.8418 206.171 29.4886 206.003 29.0973C205.836 28.706 205.749 28.2847 205.749 27.859C205.749 27.4333 205.836 27.012 206.003 26.6207C206.171 26.2294 206.417 25.8763 206.725 25.5826C207.034 25.289 207.399 25.061 207.798 24.9124C208.197 24.7639 208.623 24.6979 209.048 24.7185C209.529 24.7064 210.006 24.7981 210.447 24.9875C210.889 25.1769 211.284 25.4594 211.606 25.8157L211.001 26.4342C210.677 26.0619 210.25 25.793 209.773 25.6607C209.297 25.5283 208.792 25.5384 208.322 25.6897C207.851 25.8409 207.435 26.1266 207.126 26.5116C206.816 26.8965 206.626 27.3637 206.579 27.8553C206.583 28.171 206.652 28.4825 206.782 28.7705C206.911 29.0585 207.099 29.3168 207.332 29.5295C207.566 29.7421 207.841 29.9045 208.14 30.0067C208.439 30.1088 208.755 30.1485 209.07 30.1233C209.304 30.1255 209.537 30.0982 209.763 30.0423C210.176 29.9392 210.861 29.6373 210.861 29.1219V28.4444H208.96V27.5755H211.724V29.1734C211.753 30.0791 210.898 30.6461 210.124 30.867Z" fill="#FDFEFE"/>
<path d="M217.709 28.3418L218.961 30.8601H217.966L216.758 28.3713H214.547V30.8601H213.67V24.8589H217.229C217.473 24.8334 217.72 24.8606 217.953 24.9387C218.185 25.0168 218.398 25.144 218.577 25.3116C218.756 25.4793 218.897 25.6834 218.99 25.9103C219.083 26.1371 219.126 26.3812 219.116 26.6261C219.134 27.035 219 27.436 218.74 27.7525C218.481 28.069 218.113 28.2788 217.709 28.3418ZM217.207 25.7278H214.525V27.495H217.207C217.797 27.495 218.224 27.2152 218.224 26.582C218.224 25.9487 217.775 25.7278 217.207 25.7278Z" fill="#FDFEFE"/>
<path d="M223.715 31.0005C223.092 30.986 222.488 30.7879 221.977 30.4311C221.466 30.0744 221.073 29.5748 220.845 28.9952C220.618 28.4156 220.567 27.7817 220.699 27.1733C220.831 26.5649 221.14 26.009 221.587 25.5755C222.034 25.142 222.6 24.8501 223.212 24.7366C223.825 24.623 224.458 24.6929 225.031 24.9374C225.604 25.1818 226.092 25.59 226.433 26.1107C226.775 26.6313 226.955 27.2412 226.951 27.8637C226.937 28.7081 226.589 29.5126 225.982 30.1006C225.376 30.6887 224.56 31.0124 223.715 31.0005ZM223.715 25.5663C223.406 25.5543 223.098 25.6053 222.81 25.7161C222.521 25.8269 222.258 25.9952 222.037 26.2109C221.815 26.4265 221.64 26.6849 221.522 26.9703C221.404 27.2558 221.345 27.5622 221.349 27.8711C221.356 28.498 221.612 29.0965 222.061 29.5349C222.509 29.9733 223.114 30.2158 223.741 30.209C224.369 30.2021 224.968 29.9466 225.406 29.4985C225.845 29.0504 226.088 28.4464 226.081 27.8196C226.078 27.515 226.014 27.2142 225.893 26.9348C225.772 26.6554 225.596 26.4031 225.375 26.193C225.155 25.9829 224.894 25.8192 224.609 25.7115C224.324 25.6039 224.02 25.5545 223.715 25.5663Z" fill="#FDFEFE"/>
<path d="M233.761 30.1095C233.47 30.4147 233.115 30.6511 232.721 30.8015C232.327 30.9518 231.904 31.0122 231.483 30.9784C231.054 31.0069 230.623 30.9322 230.228 30.7606C229.834 30.5889 229.486 30.3253 229.213 29.9917C228.951 29.5693 228.832 29.0734 228.874 28.5779V24.8594H229.744V28.5779C229.72 28.772 229.738 28.969 229.797 29.1556C229.855 29.3422 229.953 29.5143 230.083 29.6603C230.521 29.9931 231.068 30.1506 231.616 30.1021C232.714 30.1021 233.319 29.7634 233.319 28.5779V24.8594H234.181V28.5779C234.242 29.1233 234.092 29.6716 233.761 30.1095Z" fill="#FDFEFE"/>
<path d="M240.011 28.3048H237.402V30.8599H236.525V24.8587H240.011C240.241 24.8402 240.473 24.8715 240.69 24.9505C240.907 25.0294 241.104 25.1543 241.269 25.3164C241.433 25.4785 241.56 25.6742 241.642 25.89C241.724 26.1058 241.758 26.3367 241.743 26.567C241.758 26.7985 241.723 27.0305 241.642 27.2477C241.56 27.4648 241.433 27.6622 241.269 27.8265C241.106 27.9909 240.909 28.1186 240.692 28.201C240.475 28.2835 240.243 28.3188 240.011 28.3048ZM240.011 25.7349H237.402V27.4212H240.011C240.128 27.439 240.249 27.4294 240.362 27.3932C240.475 27.357 240.579 27.2952 240.664 27.2126C240.75 27.13 240.815 27.0287 240.855 26.9168C240.895 26.8048 240.909 26.6851 240.895 26.567C240.895 25.9779 240.586 25.7718 240.011 25.7718V25.7349Z" fill="#FDFEFE"/>
<path d="M82.1851 18.2105C82.1851 20.3459 84.8383 21.0749 86.5408 21.0749C87.9922 21.1149 89.408 20.6224 90.5208 19.6906L85.9881 15.3535C84.5214 15.6922 82.1851 16.3255 82.1851 18.2105Z" fill="#FDFEFE"/>
<path d="M91.5306 20.6764C90.0963 21.8192 88.3165 22.4422 86.482 22.4437C84.0056 22.4437 80.8217 21.1772 80.8217 18.2686C80.8217 15.8902 82.8558 14.8225 84.8753 14.2482C84.2046 13.556 83.4012 12.827 83.4012 11.7741C83.4012 9.6755 85.9955 8.82871 87.6981 8.82871C89.095 8.78597 90.4753 9.14095 91.678 9.85222L91.1178 11.0451C90.042 10.463 88.8328 10.1711 87.6096 10.1983C86.7399 10.1983 84.7573 10.5517 84.7573 11.7373C84.7573 12.2748 85.3322 12.7681 85.6934 13.1069L91.5895 18.8061C92.3897 18.0805 93.0601 17.2239 93.5721 16.2731L94.7219 17.0095C94.1165 18.0085 93.4049 18.9393 92.5992 19.7855L94.8987 22.0902L95.3115 22.4658C97.1326 20.4566 98.1004 17.8186 98.0101 15.1096C97.9199 12.4005 96.7787 9.83267 94.8278 7.94897C92.8769 6.06527 90.2693 5.01336 87.5562 5.01563C84.8432 5.0179 82.2373 6.07417 80.2896 7.96112C78.3419 9.84808 77.205 12.4178 77.1192 15.127C77.0335 17.8363 78.0057 20.4726 79.8302 22.4787C81.6547 24.4848 84.1886 25.7034 86.8961 25.8769C89.6036 26.0504 92.2725 25.1651 94.3386 23.4083L92.9972 22.0902C92.5034 21.6116 92.0096 21.1551 91.5306 20.6764Z" fill="#FDFEFE"/>
</g>
<defs>
<clipPath id="clip0_623_5089">
<rect width="248" height="31" fill="white"/>
</clipPath>
</defs>
</svg>
