<svg width="15" height="14" viewBox="0 0 15 14" fill="none" xmlns="http://www.w3.org/2000/svg">
<path fill-rule="evenodd" clip-rule="evenodd" d="M10.3401 9.023L14.5204 13.0042C14.7599 13.2323 14.7599 13.601 14.5204 13.8291C14.401 13.9428 14.2442 14 14.0874 14C13.9305 14 13.7737 13.9428 13.6543 13.8291L9.47405 9.84782C8.47385 10.619 7.20292 11.0833 5.8187 11.0833C2.61046 11.0833 0 8.59715 0 5.54165C0 2.48615 2.61043 0 5.81867 0C9.02691 0 11.6374 2.48618 11.6374 5.54168C11.6374 6.86 11.1498 8.07043 10.3401 9.023ZM1.22509 5.54138C1.22509 7.95406 3.2855 9.91638 5.81878 9.91638C8.35204 9.91638 10.4125 7.95406 10.4125 5.54138C10.4125 3.12871 8.35207 1.16638 5.81878 1.16638C3.2855 1.16638 1.22509 3.12871 1.22509 5.54138Z" fill="#999999"/>
</svg>
