<svg width="14" height="12" viewBox="0 0 14 12" fill="none" xmlns="http://www.w3.org/2000/svg">
<path opacity="0.5" d="M9.46129 11.79C9.75129 12.07 10.2113 12.07 10.5013 11.79L13.2513 9.14C13.3256 9.07256 13.3857 8.99089 13.4279 8.89982C13.4701 8.80875 13.4936 8.71013 13.497 8.60982C13.5004 8.5095 13.4836 8.40952 13.4476 8.31581C13.4117 8.2221 13.3573 8.13656 13.2876 8.06426C13.218 7.99196 13.1346 7.93437 13.0423 7.8949C12.95 7.85543 12.8507 7.83489 12.7504 7.8345C12.65 7.8341 12.5506 7.85385 12.458 7.89259C12.3654 7.93132 12.2815 7.98825 12.2113 8.06L10.7313 9.486V0.75C10.7313 0.551088 10.6523 0.360322 10.5116 0.21967C10.371 0.0790175 10.1802 0 9.98129 0C9.78238 0 9.59161 0.0790175 9.45096 0.21967C9.31031 0.360322 9.23129 0.551088 9.23129 0.75V9.486L7.75129 8.06C7.6811 7.98825 7.59722 7.93132 7.50462 7.89259C7.41202 7.85385 7.31259 7.8341 7.21222 7.8345C7.11184 7.83489 7.01257 7.85543 6.92028 7.8949C6.828 7.93437 6.74457 7.99196 6.67494 8.06426C6.60532 8.13656 6.55092 8.2221 6.51496 8.31581C6.479 8.40952 6.46222 8.5095 6.46561 8.60982C6.469 8.71013 6.49249 8.80875 6.53469 8.89982C6.5769 8.99089 6.63695 9.07256 6.71129 9.14L9.46129 11.79ZM4.01129 0.22C3.87067 0.0795496 3.68004 0.000659943 3.48129 0.000659943C3.28254 0.000659943 3.09192 0.0795496 2.95129 0.22L0.201292 2.97C0.0688118 3.11217 -0.00331137 3.30022 0.000116847 3.49452C0.00354506 3.68882 0.0822569 3.87421 0.21967 4.01162C0.357083 4.14903 0.542468 4.22775 0.736769 4.23117C0.93107 4.2346 1.11912 4.16248 1.26129 4.03L2.73129 2.56V11.25C2.73129 11.4489 2.81031 11.6397 2.95096 11.7803C3.09161 11.921 3.28238 12 3.48129 12C3.6802 12 3.87097 11.921 4.01162 11.7803C4.15227 11.6397 4.23129 11.4489 4.23129 11.25V2.56L5.70129 4.03C5.84347 4.16248 6.03151 4.2346 6.22581 4.23117C6.42012 4.22775 6.6055 4.14903 6.74291 4.01162C6.88033 3.87421 6.95904 3.68882 6.96247 3.49452C6.9659 3.30022 6.89377 3.11217 6.76129 2.97L4.01129 0.22Z" fill="#004270"/>
</svg>
