<svg width="16" height="14" viewBox="0 0 16 14" fill="none" xmlns="http://www.w3.org/2000/svg">
<path d="M14.7359 4.96078C13.0796 2.35797 10.656 0.859375 8.1034 0.859375C6.82708 0.859375 5.58662 1.23223 4.45372 1.92775C3.32081 2.63044 2.30263 3.65579 1.47088 4.96078C0.753848 6.08652 0.753848 7.91495 1.47088 9.04068C3.12721 11.6507 5.55077 13.1421 8.1034 13.1421C9.37971 13.1421 10.6202 12.7692 11.7531 12.0737C12.886 11.371 13.9042 10.3457 14.7359 9.04068C15.4529 7.92212 15.4529 6.08652 14.7359 4.96078ZM8.1034 9.90112C6.49725 9.90112 5.2066 8.6033 5.2066 7.00432C5.2066 5.40534 6.49725 4.10752 8.1034 4.10752C9.70954 4.10752 11.0002 5.40534 11.0002 7.00432C11.0002 8.6033 9.70954 9.90112 8.1034 9.90112Z" fill="#004270"/>
<path d="M8.1021 4.95508C6.97636 4.95508 6.05859 5.87286 6.05859 7.00577C6.05859 8.1315 6.97636 9.0493 8.1021 9.0493C9.22783 9.0493 10.1528 8.1315 10.1528 7.00577C10.1528 5.88003 9.22783 4.95508 8.1021 4.95508Z" fill="#004270"/>
</svg>
